<svg width="250" height="139" viewBox="0 0 250 139" fill="none" xmlns="http://www.w3.org/2000/svg">
<g clip-path="url(#clip0_596_2)">
<path d="M128.641 137.577C124.688 138.16 120.689 138.353 116.699 138.155C107.078 137.669 97.6158 134.87 89.5297 129.609C85.9446 127.276 82.5246 124.41 80.6689 120.56C78.1501 115.331 79.031 108.712 82.6278 104.158C83.9397 102.515 85.5535 101.138 87.3823 100.101C87.6533 99.9482 87.9301 99.8009 88.21 99.6595C91.2573 98.1271 94.68 97.5005 98.0725 97.8538C103.84 98.4842 109.163 102.007 112.239 106.93C114.978 111.319 115.933 116.498 116.495 121.688C116.601 122.666 116.693 123.647 116.781 124.622C116.291 127.447 115.52 130.216 114.48 132.888C114.427 133.018 114.384 133.152 114.351 133.288C114.94 134.567 115.501 135.857 116.033 137.159C116.533 137.431 117.093 137.572 117.662 137.572H128.617L128.641 137.577Z" fill="#AC87BF"/>
<path d="M115.805 137.829C115.732 137.862 115.654 137.879 115.575 137.881C115.495 137.883 115.416 137.869 115.342 137.84C115.268 137.811 115.201 137.767 115.143 137.712C115.086 137.656 115.041 137.59 115.01 137.517C114.963 137.405 114.919 137.293 114.871 137.181C114.447 136.15 114.002 135.129 113.537 134.118C107.578 121.066 98.6904 109.565 87.564 100.506C87.5003 100.462 87.4497 100.401 87.4176 100.33C87.3855 100.259 87.373 100.18 87.3815 100.103C87.3976 100.014 87.4337 99.9301 87.4868 99.8572C87.54 99.7843 87.609 99.7244 87.6886 99.6819C87.7682 99.6394 87.8564 99.6154 87.9465 99.6118C88.0367 99.6082 88.1265 99.625 88.2093 99.661C88.2536 99.6811 88.2952 99.7069 88.333 99.7376C93.0933 103.615 97.4603 107.951 101.371 112.684C105.282 117.413 108.726 122.509 111.655 127.902C112.453 129.375 113.211 130.868 113.929 132.383C114.07 132.683 114.212 132.986 114.35 133.29C114.939 134.568 115.5 135.859 116.032 137.161C116.041 137.181 116.05 137.205 116.059 137.225C116.086 137.281 116.101 137.342 116.102 137.404C116.104 137.466 116.092 137.528 116.068 137.585C116.045 137.642 116.009 137.693 115.963 137.735C115.918 137.778 115.864 137.81 115.805 137.829Z" fill="white"/>
<path d="M76.7365 98.977C83.0815 98.977 88.225 93.8334 88.225 87.4885C88.225 81.1436 83.0815 76 76.7365 76C70.3916 76 65.248 81.1436 65.248 87.4885C65.248 93.8334 70.3916 98.977 76.7365 98.977Z" fill="#25BB15"/>
<path d="M75.5973 91.8702C75.3388 91.8707 75.0872 91.7871 74.8804 91.6321L74.8675 91.6225L72.1677 89.5553C72.0426 89.4596 71.9375 89.3401 71.8586 89.2037C71.7797 89.0673 71.7284 88.9167 71.7077 88.7605C71.687 88.6043 71.6972 88.4456 71.7379 88.2934C71.7785 88.1411 71.8488 87.9984 71.9446 87.8733C72.0405 87.7483 72.16 87.6433 72.2964 87.5644C72.4328 87.4856 72.5834 87.4343 72.7396 87.4137C72.8958 87.3931 73.0546 87.4034 73.2068 87.4441C73.359 87.4848 73.5017 87.5552 73.6267 87.6511L75.3755 88.992L79.5081 83.6024C79.604 83.4774 79.7235 83.3725 79.8599 83.2937C79.9963 83.2149 80.1469 83.1637 80.303 83.1431C80.4592 83.1225 80.6179 83.1329 80.77 83.1736C80.9222 83.2143 81.0649 83.2846 81.1899 83.3804C81.4421 83.5741 81.6077 83.8606 81.6493 84.1759C81.6909 84.4912 81.6058 84.8101 81.4125 85.0627L76.5516 91.4021C76.4391 91.5482 76.2946 91.6664 76.1291 91.7476C75.9636 91.8288 75.7816 91.8707 75.5973 91.8702Z" fill="white"/>
<path d="M48.7633 40.0462C53.4716 40.0462 57.2883 36.2294 57.2883 31.5211C57.2883 26.8129 53.4716 22.9961 48.7633 22.9961C44.0551 22.9961 40.2383 26.8129 40.2383 31.5211C40.2383 36.2294 44.0551 40.0462 48.7633 40.0462Z" fill="#2F2E41"/>
<path d="M42.1091 26.9226C43.4867 25.545 43.7659 23.5906 42.7327 22.5574C41.6995 21.5242 39.7451 21.8034 38.3675 23.181C36.9899 24.5586 36.7107 26.513 37.7439 27.5462C38.7772 28.5794 40.7315 28.3002 42.1091 26.9226Z" fill="#2F2E41"/>
<path d="M57.6484 24.2175C58.2224 22.8737 57.2353 21.164 55.4437 20.3987C53.6521 19.6334 51.7344 20.1023 51.1604 21.446C50.5864 22.7897 51.5735 24.4994 53.3651 25.2647C55.1567 26.0301 57.0745 25.5612 57.6484 24.2175Z" fill="#2F2E41"/>
<path d="M72.5036 80.7387C72.719 80.3292 72.8421 79.8775 72.864 79.4154C72.886 78.9533 72.8063 78.492 72.6307 78.064C72.4551 77.636 72.1878 77.2517 71.8476 76.9382C71.5074 76.6246 71.1026 76.3895 70.6617 76.2494L58.3436 50.1914L52.709 54.1426L66.589 78.5143C66.4027 79.2706 66.5002 80.069 66.8632 80.7581C67.2261 81.4473 67.8293 81.9794 68.5583 82.2536C69.2874 82.5277 70.0917 82.525 70.8188 82.2458C71.546 81.9666 72.1454 81.4303 72.5036 80.7387Z" fill="#FFB8B8"/>
<path d="M61.1669 54.5393L54.6248 57.4647C54.4387 57.5479 54.2368 57.59 54.0329 57.5882C53.829 57.5864 53.6279 57.5406 53.4433 57.4541C53.2586 57.3675 53.0949 57.2422 52.963 57.0866C52.8312 56.931 52.7345 56.7489 52.6794 56.5526L50.7502 49.6733C50.3298 48.7185 50.3051 47.636 50.6816 46.6631C51.0581 45.6901 51.805 44.9062 52.7586 44.4831C53.7122 44.06 54.7947 44.0324 55.7686 44.4062C56.7426 44.78 57.5286 45.5247 57.9543 46.4771L61.7842 52.4812C61.8938 52.6532 61.9651 52.8467 61.9931 53.0487C62.0212 53.2506 62.0054 53.4563 61.9468 53.6516C61.8882 53.8469 61.7883 54.0273 61.6537 54.1805C61.5191 54.3336 61.3531 54.456 61.1669 54.5393Z" fill="#CCCCCC"/>
<path d="M30.9527 83.3229C31.4034 83.2183 31.8256 83.0161 32.1896 82.7306C32.5537 82.4451 32.8507 82.0833 33.0598 81.6706C33.2689 81.2579 33.3849 80.8044 33.3998 80.342C33.4146 79.8796 33.3279 79.4195 33.1457 78.9943L44.8117 52.6379L38.1381 50.957L28.7694 77.393C28.0753 77.7464 27.5349 78.3422 27.2507 79.0674C26.9664 79.7926 26.9581 80.5968 27.2272 81.3277C27.4963 82.0587 28.0242 82.6655 28.7109 83.0332C29.3975 83.4009 30.1952 83.504 30.9527 83.3229Z" fill="#FFB8B8"/>
<path d="M27.7734 131.095L31.167 132.331L37.5478 119.829L32.5391 118.006L27.7734 131.095Z" fill="#FFB8B8"/>
<path d="M36.5643 137.865L25.8989 133.982L27.3993 129.861L33.9439 132.244C35.0368 132.642 35.9268 133.458 36.4182 134.512C36.9096 135.566 36.9622 136.772 36.5643 137.865Z" fill="#2F2E41"/>
<path d="M35.7994 123.901C35.5911 123.901 35.3855 123.855 35.1973 123.766L31.2973 121.919C30.9776 121.769 30.7256 121.505 30.591 121.178C30.4564 120.851 30.449 120.486 30.5701 120.155L41.5766 89.6752C41.6678 89.4228 41.8287 89.2014 42.0406 89.0367C42.2525 88.8721 42.5068 88.7709 42.7739 88.7449C43.041 88.719 43.31 88.7693 43.5497 88.8901C43.7893 89.0109 43.9898 89.1972 44.1279 89.4273L49.9494 99.1298C50.0789 99.346 50.1486 99.5928 50.1513 99.8448C50.154 100.097 50.0896 100.345 49.9647 100.564L37.0366 123.188C36.9113 123.405 36.731 123.585 36.5137 123.711C36.2965 123.836 36.0501 123.902 35.7994 123.901Z" fill="#2F2E41"/>
<path d="M49.0339 40.7905C53.0298 40.7905 56.269 37.5513 56.269 33.5554C56.269 29.5596 53.0298 26.3203 49.0339 26.3203C45.0381 26.3203 41.7988 29.5596 41.7988 33.5554C41.7988 37.5513 45.0381 40.7905 49.0339 40.7905Z" fill="#FFB8B8"/>
<path d="M59.2707 66.4516L46.4601 62.9286L39.6467 49.3019C39.3193 48.6472 39.1648 47.9198 39.1977 47.1886C39.2306 46.4575 39.4499 45.7468 39.8347 45.1242C40.2194 44.5017 40.757 43.9878 41.3963 43.6313C42.0355 43.2749 42.7553 43.0879 43.4872 43.0879H53.6794C54.7373 43.0872 55.7582 43.4776 56.5457 44.1841C59.2797 46.6334 65.0238 53.6945 59.3261 66.3284L59.2707 66.4516Z" fill="#CCCCCC"/>
<path d="M43.2337 57.3503L36.7431 54.3122C36.5585 54.2258 36.3946 54.1005 36.2627 53.945C36.1308 53.7895 36.0339 53.6075 35.9787 53.4112C35.9236 53.2149 35.9113 53.009 35.9429 52.8075C35.9744 52.6061 36.049 52.4138 36.1616 52.2438L40.1061 46.2867C40.5538 45.3444 41.3568 44.6181 42.3392 44.267C43.3215 43.9159 44.403 43.9686 45.3465 44.4137C46.29 44.8587 47.0186 45.6597 47.3725 46.641C47.7263 47.6224 47.6766 48.704 47.2343 49.6488L45.1946 56.472C45.1361 56.6674 45.0363 56.8478 44.9018 57.0011C44.7673 57.1543 44.6013 57.2768 44.4152 57.3602C44.2292 57.4435 44.0273 57.4858 43.8234 57.4841C43.6195 57.4824 43.4184 57.4368 43.2337 57.3503Z" fill="#CCCCCC"/>
<path d="M51.0868 134.512H54.698L56.4163 120.582H51.0859L51.0868 134.512Z" fill="#FFB8B8"/>
<path d="M61.6619 137.865L50.3117 137.866L50.3115 133.48H57.2764C58.4395 133.48 59.5549 133.942 60.3773 134.764C61.1998 135.587 61.6619 136.702 61.6619 137.865Z" fill="#2F2E41"/>
<path d="M52.4493 129.202C52.1246 129.203 51.8096 129.091 51.5575 128.887C51.3055 128.682 51.1317 128.397 51.0655 128.079C50.0274 123.188 44.6359 98.1346 40.4279 85.23C36.1465 72.1005 43.438 66.1203 44.9432 65.0548C45.1035 64.9416 45.2308 64.7878 45.3122 64.6093L46.4057 62.2037C46.5191 61.9554 46.7015 61.7449 46.9311 61.5972C47.1608 61.4496 47.428 61.3711 47.701 61.3711H47.7099C55.9075 61.4201 58.6634 64.0042 59.4677 65.113C59.5864 65.2782 59.6677 65.4672 59.706 65.6669C59.7444 65.8666 59.7388 66.0723 59.6897 66.2696L54.5029 87.669C54.4708 87.8017 54.4635 87.9393 54.4815 88.0746L59.6419 126.929C59.6667 127.116 59.6541 127.306 59.6048 127.488C59.5554 127.669 59.4704 127.84 59.3546 127.988C59.2388 128.137 59.0946 128.261 58.9303 128.353C58.7661 128.446 58.5851 128.504 58.398 128.526L52.6159 129.193C52.5606 129.199 52.5049 129.202 52.4493 129.202Z" fill="#2F2E41"/>
<path d="M41.4316 29.0052C43.085 30.1448 45.0473 30.7512 47.0553 30.7432C46.339 31.2398 45.5236 31.5753 44.6652 31.7265C47.335 32.2992 50.0942 32.3147 52.7702 31.772C53.365 31.6767 53.939 31.4795 54.4669 31.1893C54.73 31.0424 54.9592 30.8417 55.1396 30.6004C55.32 30.3591 55.4477 30.0825 55.5142 29.7887C55.692 28.7728 54.9004 27.8499 54.0778 27.2279C52.8184 26.2901 51.3662 25.644 49.8263 25.3363C48.2865 25.0286 46.6976 25.067 45.1744 25.4487C44.1798 25.7058 43.1835 26.1402 42.5375 26.9389C41.8915 27.7376 41.7001 28.969 42.3156 29.7914L41.4316 29.0052Z" fill="#2F2E41"/>
<path d="M174.242 60.3875C176.357 60.3875 178.071 58.673 178.071 56.558C178.071 54.443 176.357 52.7285 174.242 52.7285C172.127 52.7285 170.412 54.443 170.412 56.558C170.412 58.673 172.127 60.3875 174.242 60.3875Z" fill="#25BB15"/>
<path d="M173.861 58.0179C173.775 58.0181 173.691 57.9902 173.622 57.9386L173.618 57.9354L172.718 57.2463C172.676 57.2144 172.641 57.1746 172.615 57.1291C172.588 57.0837 172.571 57.0334 172.564 56.9813C172.557 56.9292 172.56 56.8762 172.574 56.8254C172.588 56.7745 172.611 56.7269 172.643 56.6851C172.675 56.6434 172.715 56.6084 172.76 56.5821C172.806 56.5558 172.856 56.5387 172.908 56.5319C172.961 56.5251 173.014 56.5286 173.064 56.5422C173.115 56.5559 173.163 56.5795 173.204 56.6116L173.787 57.0585L175.165 55.262C175.197 55.2203 175.237 55.1854 175.282 55.1591C175.328 55.1328 175.378 55.1158 175.43 55.1089C175.482 55.102 175.535 55.1055 175.585 55.1191C175.636 55.1326 175.684 55.1561 175.725 55.188C175.809 55.2526 175.865 55.3481 175.879 55.4532C175.892 55.5583 175.864 55.6646 175.8 55.7488L174.179 57.8619C174.142 57.9106 174.094 57.95 174.038 57.9771C173.983 58.0041 173.923 58.0181 173.861 58.0179Z" fill="white"/>
<path d="M174.242 71.5809C176.357 71.5809 178.071 69.8663 178.071 67.7514C178.071 65.6364 176.357 63.9219 174.242 63.9219C172.127 63.9219 170.412 65.6364 170.412 67.7514C170.412 69.8663 172.127 71.5809 174.242 71.5809Z" fill="#25BB15"/>
<path d="M173.861 69.2133C173.775 69.2134 173.691 69.1856 173.622 69.1339L173.618 69.1307L172.718 68.4416C172.676 68.4097 172.641 68.3699 172.615 68.3244C172.588 68.279 172.571 68.2287 172.564 68.1766C172.557 68.1245 172.56 68.0715 172.574 68.0207C172.588 67.9699 172.611 67.9222 172.643 67.8805C172.675 67.8387 172.715 67.8037 172.76 67.7774C172.806 67.7511 172.856 67.734 172.908 67.7272C172.961 67.7204 173.014 67.7239 173.064 67.7375C173.115 67.7512 173.163 67.7748 173.204 67.8069L173.787 68.2538L175.165 66.4573C175.197 66.4157 175.237 66.3807 175.282 66.3544C175.328 66.3281 175.378 66.3111 175.43 66.3042C175.482 66.2973 175.535 66.3008 175.585 66.3144C175.636 66.3279 175.684 66.3514 175.725 66.3833C175.809 66.4479 175.865 66.5434 175.879 66.6485C175.892 66.7536 175.864 66.8599 175.8 66.9441L174.179 69.0572C174.142 69.1059 174.094 69.1453 174.038 69.1724C173.983 69.1994 173.923 69.2134 173.861 69.2133Z" fill="white"/>
<path d="M176.302 84.5418C178.417 84.5418 180.132 82.8273 180.132 80.7123C180.132 78.5973 178.417 76.8828 176.302 76.8828C174.187 76.8828 172.473 78.5973 172.473 80.7123C172.473 82.8273 174.187 84.5418 176.302 84.5418Z" fill="#25BB15"/>
<path d="M175.924 82.1742C175.838 82.1744 175.754 82.1465 175.685 82.0948L175.68 82.0916L174.78 81.4026C174.739 81.3707 174.704 81.3309 174.677 81.2854C174.651 81.2399 174.634 81.1897 174.627 81.1375C174.62 81.0854 174.623 81.0324 174.637 80.9816C174.65 80.9308 174.674 80.8831 174.706 80.8414C174.737 80.7997 174.777 80.7646 174.823 80.7383C174.868 80.712 174.919 80.695 174.971 80.6881C175.023 80.6813 175.076 80.6848 175.127 80.6985C175.178 80.7122 175.225 80.7357 175.267 80.7678L175.85 81.2148L177.227 79.4183C177.259 79.3766 177.299 79.3416 177.345 79.3154C177.39 79.2891 177.44 79.272 177.492 79.2652C177.544 79.2583 177.597 79.2617 177.648 79.2753C177.699 79.2889 177.746 79.3123 177.788 79.3443C177.872 79.4089 177.927 79.5043 177.941 79.6094C177.955 79.7145 177.927 79.8208 177.862 79.905L176.242 82.0181C176.204 82.0668 176.156 82.1062 176.101 82.1333C176.046 82.1604 175.985 82.1744 175.924 82.1742Z" fill="white"/>
<path d="M213.23 112.687C213.19 112.687 213.165 112.686 213.156 112.686H208.402V111.985H213.174C213.284 111.989 215.538 112.053 217.615 109.533C220.709 105.777 223.251 96.4803 217.783 73.5168C210.432 42.639 216.563 15.3603 219.541 5.06534C219.688 4.55601 219.714 4.01953 219.618 3.49831C219.521 2.97709 219.305 2.4854 218.986 2.0621C218.667 1.63879 218.254 1.29546 217.78 1.05924C217.305 0.823019 216.782 0.700381 216.252 0.70101H145.249C144.709 0.701734 144.177 0.829726 143.696 1.0746C143.215 1.31948 142.798 1.67434 142.48 2.11038C141.219 3.84543 139.488 7.17862 138.405 13.2056L137.715 13.0817C138.821 6.92379 140.609 3.49253 141.913 1.69826C142.297 1.17285 142.798 0.745257 143.378 0.450182C143.958 0.155108 144.599 0.000872715 145.249 1.90787e-06H216.252C216.891 -0.000612777 217.521 0.147312 218.093 0.432091C218.664 0.716869 219.162 1.1307 219.546 1.64088C219.931 2.15107 220.191 2.74363 220.307 3.37175C220.423 3.99987 220.391 4.64635 220.214 5.2601C217.252 15.5017 211.152 42.6389 218.465 73.3545C224.01 96.641 221.344 106.139 218.132 110.007C216.013 112.558 213.679 112.687 213.23 112.687Z" fill="#E6E6E6"/>
<path d="M200.437 125.48C200.397 125.48 200.372 125.479 200.363 125.479H195.609V124.778H200.381C200.492 124.782 202.745 124.846 204.822 122.326C207.917 118.57 210.458 109.273 204.991 86.3097C197.639 55.432 203.77 28.1533 206.748 17.8583C206.895 17.349 206.921 16.8125 206.825 16.2913C206.728 15.7701 206.512 15.2784 206.193 14.8551C205.874 14.4318 205.461 14.0884 204.987 13.8522C204.512 13.616 203.989 13.4934 203.459 13.494H132.456C131.916 13.4947 131.384 13.6227 130.903 13.8676C130.422 14.1124 130.005 14.4673 129.687 14.9033C128.426 16.6384 126.695 19.9716 125.612 25.9986L124.922 25.8747C126.029 19.7168 127.816 16.2855 129.12 14.4912C129.504 13.9658 130.005 13.5382 130.585 13.2432C131.165 12.9481 131.806 12.7938 132.456 12.793H203.459C204.098 12.7924 204.728 12.9403 205.3 13.2251C205.871 13.5098 206.369 13.9237 206.753 14.4339C207.138 14.944 207.398 15.5366 207.514 16.1647C207.63 16.7928 207.598 17.4393 207.421 18.0531C204.459 28.2946 198.359 55.4318 205.673 86.1475C211.217 109.434 208.552 118.932 205.339 122.8C203.221 125.351 200.886 125.48 200.437 125.48Z" fill="white"/>
<path d="M192.878 98.9414C185.564 68.2259 191.664 41.0866 194.628 30.8471C194.804 30.2333 194.836 29.5869 194.72 28.9589C194.603 28.3309 194.343 27.7385 193.959 27.2283C193.575 26.7182 193.077 26.3043 192.506 26.0193C191.934 25.7342 191.304 25.5859 190.666 25.5859H119.661C119.011 25.5866 118.37 25.7406 117.791 26.0354C117.211 26.3302 116.71 26.7576 116.326 27.2827C113.46 31.2241 107.513 44.2945 114.155 80.4597C117.708 99.8075 117.655 112.999 116.494 121.689C115.843 126.582 114.839 130.046 113.928 132.382L113.831 132.629C113.64 133.102 113.54 133.607 113.537 134.117C113.53 134.693 113.645 135.264 113.875 135.792C114.105 136.32 114.445 136.793 114.871 137.18C115.149 137.441 115.464 137.659 115.805 137.829C116.088 137.973 116.388 138.083 116.698 138.156C117.013 138.232 117.336 138.271 117.661 138.27H187.57C187.579 138.27 187.602 138.273 187.643 138.273C188.091 138.273 190.427 138.144 192.545 135.593C195.756 131.725 198.422 122.228 192.878 98.9414ZM192.027 135.118C189.95 137.64 187.696 137.575 187.587 137.572H117.661C117.101 137.572 116.55 137.435 116.055 137.172C115.561 136.91 115.138 136.53 114.824 136.067C114.548 135.666 114.362 135.21 114.28 134.73C114.198 134.251 114.222 133.759 114.35 133.289C114.383 133.153 114.426 133.019 114.479 132.888C115.519 130.217 116.29 127.448 116.78 124.623C118.441 115.564 118.751 101.587 114.845 80.333C108.252 44.4359 114.082 31.5629 116.892 27.6951C117.211 27.2597 117.627 26.9054 118.108 26.6608C118.59 26.4162 119.121 26.2882 119.661 26.287H190.666C191.195 26.2867 191.718 26.4094 192.192 26.6456C192.666 26.8818 193.079 27.225 193.398 27.6481C193.717 28.0712 193.933 28.5626 194.029 29.0835C194.126 29.6044 194.1 30.1406 193.953 30.6497C190.975 40.9452 184.845 68.2259 192.197 99.1034C197.665 122.066 195.123 131.363 192.027 135.118Z" fill="white"/>
<path d="M159.146 59.0319H122.564C121.82 59.0319 121.107 58.7364 120.581 58.2106C120.055 57.6847 119.76 56.9715 119.76 56.2278C119.76 55.4842 120.055 54.771 120.581 54.2451C121.107 53.7193 121.82 53.4238 122.564 53.4238H159.146C159.89 53.4238 160.603 53.7193 161.129 54.2451C161.655 54.771 161.95 55.4842 161.95 56.2278C161.95 56.9715 161.655 57.6847 161.129 58.2106C160.603 58.7364 159.89 59.0319 159.146 59.0319Z" fill="white"/>
<path d="M159.146 71.11H122.564C121.82 71.11 121.107 70.8146 120.581 70.2887C120.055 69.7629 119.76 69.0496 119.76 68.306C119.76 67.5623 120.055 66.8491 120.581 66.3232C121.107 65.7974 121.82 65.502 122.564 65.502H159.146C159.89 65.502 160.603 65.7974 161.129 66.3232C161.655 66.8491 161.95 67.5623 161.95 68.306C161.95 69.0496 161.655 69.7629 161.129 70.2887C160.603 70.8146 159.89 71.11 159.146 71.11Z" fill="white"/>
<path d="M162.093 83.483H125.511C124.767 83.483 124.054 83.1876 123.528 82.6618C123.002 82.1359 122.707 81.4227 122.707 80.679C122.707 79.9353 123.002 79.2221 123.528 78.6963C124.054 78.1704 124.767 77.875 125.511 77.875H162.093C162.837 77.875 163.55 78.1704 164.076 78.6963C164.602 79.2221 164.897 79.9353 164.897 80.679C164.897 81.4227 164.602 82.1359 164.076 82.6618C163.55 83.1876 162.837 83.483 162.093 83.483Z" fill="white"/>
<path d="M164.154 96.444H127.572C126.828 96.444 126.115 96.1485 125.589 95.6227C125.063 95.0968 124.768 94.3836 124.768 93.64C124.768 92.8963 125.063 92.1831 125.589 91.6572C126.115 91.1314 126.828 90.8359 127.572 90.8359H164.154C164.898 90.8359 165.611 91.1314 166.137 91.6572C166.662 92.1831 166.958 92.8963 166.958 93.64C166.958 94.3836 166.662 95.0968 166.137 95.6227C165.611 96.1485 164.898 96.444 164.154 96.444Z" fill="white"/>
<path d="M164.171 37.2604H137.883C137.515 37.2608 137.15 37.1885 136.809 37.0478C136.469 36.907 136.159 36.7005 135.898 36.4401C135.638 36.1797 135.431 35.8705 135.29 35.5301C135.149 35.1897 135.076 34.8248 135.076 34.4564C135.076 34.0879 135.149 33.723 135.29 33.3827C135.431 33.0423 135.638 32.733 135.898 32.4726C136.159 32.2122 136.469 32.0057 136.809 31.865C137.15 31.7242 137.515 31.652 137.883 31.6523H164.171C164.914 31.6523 165.628 31.9478 166.153 32.4736C166.679 32.9995 166.975 33.7127 166.975 34.4564C166.975 35.2 166.679 35.9132 166.153 36.4391C165.628 36.965 164.914 37.2604 164.171 37.2604Z" fill="#25BB15"/>
<path d="M178.66 97.4695C180.775 97.4695 182.489 95.755 182.489 93.64C182.489 91.5251 180.775 89.8105 178.66 89.8105C176.545 89.8105 174.83 91.5251 174.83 93.64C174.83 95.755 176.545 97.4695 178.66 97.4695Z" fill="#EBEBEB"/>
<path d="M165.921 109.11H129.339C128.595 109.11 127.882 108.815 127.356 108.289C126.831 107.763 126.535 107.05 126.535 106.306C126.535 105.562 126.831 104.849 127.356 104.323C127.882 103.797 128.595 103.502 129.339 103.502H165.921C166.665 103.502 167.378 103.797 167.904 104.323C168.43 104.849 168.725 105.562 168.725 106.306C168.725 107.05 168.43 107.763 167.904 108.289C167.378 108.815 166.665 109.11 165.921 109.11Z" fill="white"/>
<path d="M180.427 110.136C182.542 110.136 184.257 108.421 184.257 106.306C184.257 104.191 182.542 102.477 180.427 102.477C178.312 102.477 176.598 104.191 176.598 106.306C176.598 108.421 178.312 110.136 180.427 110.136Z" fill="#EBEBEB"/>
</g>
<defs>
<clipPath id="clip0_596_2">
<rect width="250" height="139" fill="white"/>
</clipPath>
</defs>
</svg>
